<?xml version="1.0" encoding="utf-8"?>
<!-- Generator: Adobe Illustrator 26.1.0, SVG Export Plug-In . SVG Version: 6.00 Build 0)  -->
<svg version="1.1" xmlns="http://www.w3.org/2000/svg" xmlns:xlink="http://www.w3.org/1999/xlink" x="0px" y="0px"
	 viewBox="0 0 658.4 325" style="enable-background:new 0 0 658.4 325;" xml:space="preserve">
<style type="text/css">
	.st0{fill:#E1AF2D;}
	.st1{fill:#E1D06A;}
	.st2{fill:#DD8846;}
	.st3{fill:#259CCC;}
	.st4{fill:#219FDA;}
	.st5{fill:#1F7FA5;}
	.st6{fill:#E2E2E2;}
	.st7{fill:#D8D8D8;}
	.st8{fill:#F0EFEF;stroke:#828282;stroke-width:9;stroke-miterlimit:10;}
	.st9{fill:#FFFFFF;}
	.st10{fill:none;stroke:#828282;stroke-width:9;stroke-miterlimit:10;}
</style>
<g id="Layer_2">
	<g id="ogien_00000176727004239611289570000015338631450119828106_">
		<path class="st0" d="M252.4,137.3c0,0-163.6-24-214,26.3c3.4,4,52,38.1,214,18.8"/>
		<path class="st1" d="M252.3,143.8c0,0-135.1-13.4-180.1,18.8c2.8,2.8,45,25.6,180.1,12.9"/>
		<path class="st2" d="M252.4,154.9c0,0-100-5.9-135.1,6.8c2.1,1.4,43.1,9.9,135.1,6.4"/>
	</g>
</g>
<g id="Layer_1">
	<g id="rakieta_00000048462448756779140590000012213378370271768504_">
		<path class="st3" d="M356.6,225.1c0,0-30,68.4-143.3,44.3c0,0,51.5-14.1,68.6-67.8L356.6,225.1z"/>
		<path class="st4" d="M356.6,97.9c0,0-30-68.4-143.3-44.3c0,0,51.5,14.1,68.6,67.8L356.6,97.9z"/>
		
			<rect x="236.2" y="146.6" transform="matrix(-1.836970e-16 1 -1 -1.836970e-16 427.474 -105.8146)" class="st5" width="60.9" height="28.6"/>
		<path class="st6" d="M620.1,160.8c0,0,0,7.2-6.2,13.5c-14.9,15.3-68.7,58.7-165.6,63.3c-20.9,1-59.1,0.3-86.3-3.9
			c-45.9-7.1-102.7-30.9-101.2-33.5c9.2-15.5,8.2-39.4,8.2-39.4"/>
		<path class="st6" d="M620.1,160.8c0,0,0-7.2-6.2-13.5C599,132,545.2,88.6,448.3,84c-20.9-1-59.1-0.3-86.3,3.9
			c-45.9,7.1-102.7,30.9-101.2,33.5c9.2,15.5,8.2,39.4,8.2,39.4"/>
		<path class="st4" d="M536.1,220.9c42.7-15.3,68.3-36.7,77.8-46.5c6.2-6.3,6.2-13.5,6.2-13.5s0-7.2-6.2-13.5
			c-9.6-9.8-35.1-31.2-77.8-46.5V220.9z"/>
		<path class="st7" d="M536.1,199.1c-112.7,33.4-217.8-1.1-267.9-23.1c-1,7.7-3.1,16.9-7.4,24.2c-1.5,2.6,55.3,26.4,101.2,33.5
			c27.2,4.2,65.4,4.9,86.3,3.9c34.8-1.7,64-8.3,87.8-16.8V199.1z"/>
		<path class="st3" d="M536.1,199.1v21.7c1.3-0.5,2.5-0.9,3.7-1.4c0.2-0.1,0.5-0.2,0.7-0.3c1-0.4,1.9-0.7,2.9-1.1
			c0.3-0.1,0.6-0.2,0.9-0.4c1-0.4,1.9-0.8,2.9-1.2c0.2-0.1,0.4-0.2,0.6-0.2c1.2-0.5,2.3-1,3.5-1.5c0,0,0.1,0,0.1,0
			c1.1-0.5,2.1-0.9,3.2-1.4c0.3-0.1,0.5-0.2,0.8-0.3c0.9-0.4,1.7-0.8,2.5-1.2c0.2-0.1,0.5-0.2,0.7-0.3c1-0.5,2-1,3-1.4c0,0,0,0,0,0
			c1.1-0.5,2.1-1,3.1-1.5c0.2-0.1,0.3-0.2,0.5-0.3c0.8-0.4,1.6-0.8,2.4-1.3c0.2-0.1,0.5-0.2,0.7-0.4c0.8-0.4,1.6-0.8,2.4-1.3
			c0.2-0.1,0.3-0.2,0.5-0.3c1.9-1,3.7-2,5.5-3.1c0.2-0.1,0.4-0.2,0.6-0.3c0.7-0.4,1.4-0.8,2.1-1.2c0.2-0.1,0.4-0.2,0.6-0.4
			c0.8-0.5,1.6-0.9,2.3-1.4c0,0,0.1-0.1,0.1-0.1c0.8-0.5,1.6-1,2.5-1.5c0.1-0.1,0.2-0.2,0.4-0.2c0.7-0.4,1.3-0.8,1.9-1.3
			c0.2-0.1,0.4-0.2,0.6-0.4c0.6-0.4,1.2-0.8,1.8-1.2c0.1-0.1,0.3-0.2,0.4-0.3c1.4-1,2.8-1.9,4.2-2.9c0.2-0.1,0.3-0.2,0.5-0.3
			c0.5-0.4,1-0.7,1.5-1.1c0.2-0.1,0.3-0.2,0.5-0.4c0.6-0.4,1.1-0.8,1.6-1.2c0.1,0,0.1-0.1,0.2-0.1c0.6-0.5,1.2-0.9,1.8-1.4
			c0.1-0.1,0.2-0.2,0.3-0.2c0.5-0.4,0.9-0.7,1.4-1.1c0.1-0.1,0.3-0.2,0.4-0.4c0.4-0.3,0.8-0.7,1.2-1c0.1-0.1,0.2-0.2,0.4-0.3
			c1-0.8,2-1.6,2.9-2.4c0.1-0.1,0.2-0.2,0.4-0.3c0.3-0.3,0.7-0.6,1-0.9c0.1-0.1,0.2-0.2,0.4-0.3c0.3-0.3,0.7-0.6,1-0.9
			c0.1-0.1,0.1-0.1,0.2-0.2c0.4-0.4,0.8-0.7,1.1-1.1c0.1-0.1,0.1-0.1,0.2-0.2c0.3-0.3,0.6-0.5,0.8-0.8c0.1-0.1,0.2-0.2,0.3-0.3
			c0.2-0.2,0.5-0.5,0.7-0.7c0.1-0.1,0.2-0.2,0.3-0.3c0.3-0.3,0.6-0.6,0.9-0.9c4.6-4.8,5.8-10,6.1-12.3c0-0.2,0-0.4,0.1-0.5
			c0-0.3,0-0.5,0-0.6c0-0.1,0-0.1,0-0.1C592.1,178.5,563.9,190.9,536.1,199.1z"/>
		<circle class="st8" cx="440.4" cy="160.8" r="35.4"/>
		
			<rect x="412.9" y="145.2" transform="matrix(-0.8392 -0.5438 0.5438 -0.8392 737.5961 518.2092)" class="st9" width="65" height="9.6"/>
		
			<rect x="400.6" y="159.7" transform="matrix(-0.8392 -0.5438 0.5438 -0.8392 707.967 544.7811)" class="st9" width="67.8" height="16"/>
		<circle class="st10" cx="440.4" cy="160.8" r="35.4"/>
	</g>
</g>
</svg>
